<svg width="208" height="48" viewBox="0 0 208 48" fill="none" xmlns="http://www.w3.org/2000/svg">
<g clip-path="url(#clip0_2_165)">
<path d="M35.2502 47.9902H-0.0100708V20.3326L17.3628 33.5764L35.2502 20.3621V47.9902ZM1.61246 46.4072H33.6277V23.5182L17.3529 35.5625L1.59267 23.5772L1.61246 46.4072Z" fill="white"/>
<path d="M7.79603 47.2036H6.20319L6.29223 17.3928L17.6202 25.6222L28.7899 17.3732V47.2036H27.1971V20.5194L17.6301 27.5887L7.87518 20.4998L7.79603 47.2036Z" fill="white"/>
<path d="M33.2123 13.991V18.907H31.6492V13.991C31.6492 7.10857 25.5152 1.58297 17.9764 1.58297H17.0662C9.5274 1.58297 3.39346 7.1479 3.39346 13.991V18.907H1.77094V13.991C1.77094 6.28268 8.61721 -0.0196533 17.0365 -0.0196533H17.9467C26.3661 -0.0196533 33.2123 6.28268 33.2123 13.991Z" fill="white"/>
<path d="M4.18494 18.9464C4.1869 19.2618 4.09457 19.5707 3.91965 19.834C3.74474 20.0972 3.49511 20.3029 3.20243 20.4249C2.90975 20.547 2.58718 20.5799 2.27563 20.5196C1.96408 20.4593 1.67758 20.3083 1.45244 20.086C1.2273 19.8636 1.07367 19.5798 1.01102 19.2706C0.948373 18.9614 0.979529 18.6406 1.10054 18.349C1.22155 18.0574 1.42697 17.808 1.69075 17.6326C1.95453 17.4571 2.26479 17.3634 2.5822 17.3634C2.79221 17.3621 3.0004 17.4021 3.1948 17.4811C3.38919 17.5601 3.56596 17.6765 3.71492 17.8236C3.86387 17.9707 3.98209 18.1456 4.06275 18.3383C4.14342 18.531 4.18495 18.7377 4.18494 18.9464Z" fill="white"/>
<path d="M33.9246 18.9464C33.9246 19.2594 33.8312 19.5655 33.6562 19.8258C33.4812 20.0861 33.2324 20.289 32.9414 20.4088C32.6503 20.5286 32.33 20.56 32.0211 20.4989C31.7121 20.4378 31.4283 20.2871 31.2055 20.0657C30.9827 19.8443 30.831 19.5622 30.7696 19.2552C30.7081 18.9481 30.7396 18.6298 30.8602 18.3406C30.9808 18.0513 31.1849 17.8041 31.4469 17.6302C31.7088 17.4562 32.0168 17.3634 32.3318 17.3634C32.7542 17.3634 33.1594 17.5302 33.4581 17.827C33.7568 18.1239 33.9246 18.5265 33.9246 18.9464Z" fill="white"/>
<path d="M54.4041 26.753V19.2216L49.9422 25.8288L45.5 19.2216V26.753H43.2146V11.9263L49.9224 21.8566L56.6301 11.9263V26.753H54.4041Z" fill="white"/>
<path d="M67.3349 23.7149H62.2595L61.0426 26.753H58.5891L64.7922 11.9263L70.9856 26.753H68.5419L67.3349 23.7149ZM66.5236 21.7485L64.7922 17.4125L63.0609 21.7288L66.5236 21.7485Z" fill="white"/>
<path d="M84.0845 26.753V19.2216L79.6225 25.8288L75.1804 19.2216V26.753H72.9543V11.9263L79.6621 21.8566L86.3699 11.9263V26.753H84.0845Z" fill="white"/>
<path d="M97.0745 23.7149H91.9992L90.7922 26.753H88.3287L94.5418 11.9263L100.725 26.753H98.2815L97.0745 23.7149ZM96.2633 21.7485L94.5418 17.4322L92.8105 21.7485H96.2633Z" fill="white"/>
<path d="M119.632 26.753V19.2216L115.17 25.8288L110.698 19.2216V26.753H108.472V11.9263L115.17 21.8566L121.877 11.9263V26.753H119.632Z" fill="white"/>
<path d="M132.562 23.7149H127.487L126.28 26.753H123.817L130.03 11.9263L136.213 26.753H133.779L132.562 23.7149ZM131.761 21.7485L130.03 17.4322L128.298 21.7485H131.761Z" fill="white"/>
<path d="M147.996 26.753H145.473L141.882 21.9549H140.25V26.753H138.014V12.5752H142.248C142.908 12.5394 143.568 12.6476 144.182 12.8922C144.795 13.1367 145.348 13.5118 145.8 13.991C146.585 14.9036 146.998 16.075 146.957 17.2749C146.996 18.4686 146.583 19.6335 145.8 20.5391C145.349 21.0292 144.781 21.3979 144.148 21.6108L147.996 26.753ZM142.248 19.9689C142.626 19.9966 143.006 19.9424 143.362 19.81C143.717 19.6776 144.039 19.4702 144.306 19.202C144.76 18.65 144.987 17.9471 144.939 17.2355C144.983 16.5245 144.757 15.823 144.306 15.2691C144.037 15.0055 143.714 14.8024 143.359 14.6735C143.004 14.5446 142.625 14.4929 142.248 14.5219H140.269V19.9099L142.248 19.9689Z" fill="white"/>
<path d="M155.525 21.4043V19.4379H160.472V25.2782C159.203 26.332 157.582 26.8726 155.931 26.7923C152.161 26.7923 148.896 24.5113 148.896 19.4379C148.896 14.3646 153.477 12.6145 155.901 12.6145C157.008 12.6595 158.099 12.8923 159.126 13.3027V15.8394C158.16 15.2369 157.051 14.8978 155.911 14.8562C154.726 14.9939 153.632 15.5522 152.829 16.4285C152.025 17.3047 151.568 18.4398 151.54 19.6248C151.512 20.8097 151.916 21.9647 152.678 22.8771C153.439 23.7895 154.506 24.3977 155.683 24.5899C156.573 24.6213 157.458 24.4427 158.266 24.0688V21.3748L155.525 21.4043Z" fill="white"/>
<path d="M170.494 23.7149H165.419L164.221 26.753H161.748L167.951 11.9263L174.115 26.753H171.671L170.494 23.7149ZM169.683 21.7485L167.951 17.4322L166.2 21.7288L169.683 21.7485Z" fill="white"/>
<path d="M185.908 26.753H183.385L179.794 21.9549H178.161V26.753H175.925V12.5752H180.16C180.82 12.5394 181.48 12.6476 182.093 12.8922C182.707 13.1367 183.259 13.5118 183.712 13.991C184.496 14.9036 184.909 16.075 184.869 17.2749C184.908 18.4686 184.495 19.6335 183.712 20.5391C183.252 21.0334 182.673 21.4024 182.03 21.6108L185.908 26.753ZM180.16 19.9689C180.538 19.9966 180.918 19.9424 181.273 19.81C181.629 19.6776 181.951 19.4702 182.218 19.202C182.672 18.65 182.898 17.9471 182.851 17.2355C182.894 16.5245 182.668 15.823 182.218 15.2691C181.948 15.0055 181.625 14.8024 181.27 14.6735C180.915 14.5446 180.537 14.4929 180.16 14.5219H178.181V19.9099L180.16 19.9689Z" fill="white"/>
<path d="M189.875 18.3466H195.089V20.313H189.875V24.7079H196.197V26.6743H187.649V12.5752H196.197V14.5416H189.875V18.3466Z" fill="white"/>
<path d="M208 14.571H204.043V26.7529H201.817V14.571H197.859V12.6046H207.951L208 14.571Z" fill="white"/>
<path d="M43.1256 35.592V38.0304H45.6088V38.5711H43.1256V41.039H45.8858V41.5797H42.4627V35.0513H45.8858V35.592H43.1256Z" fill="white"/>
<path d="M47.7755 36.5949C48.0368 36.0906 48.4342 35.6684 48.9231 35.3757C49.4182 35.0893 49.9827 34.9431 50.5555 34.9529C51.2194 34.9329 51.8742 35.111 52.4353 35.4642C52.9628 35.8186 53.3617 36.3322 53.573 36.9292H52.8013C52.624 36.5237 52.3274 36.181 51.9505 35.946C51.5338 35.6851 51.0477 35.5549 50.5555 35.5724C50.1009 35.5638 49.6525 35.6794 49.2595 35.9066C48.8634 36.1358 48.5461 36.4785 48.3493 36.8899C48.1279 37.3504 48.013 37.8543 48.013 38.3647C48.013 38.875 48.1279 39.3789 48.3493 39.8395C48.5477 40.2498 48.8645 40.5921 49.2595 40.8227C49.6517 41.0529 50.1 41.1719 50.5555 41.1668C51.0472 41.1795 51.5319 41.0497 51.9505 40.7932C52.3282 40.5591 52.625 40.2161 52.8013 39.81H53.573C53.3393 40.3555 52.9375 40.8134 52.4254 41.1176C51.8673 41.4695 51.2162 41.6476 50.5555 41.6289C49.9827 41.6388 49.4182 41.4926 48.9231 41.2061C48.436 40.9286 48.038 40.5195 47.7755 40.0263C47.4862 39.5061 47.3395 38.9196 47.35 38.3253C47.3375 37.7215 47.4842 37.1249 47.7755 36.5949Z" fill="white"/>
<path d="M56.64 41.2159C56.1507 40.9347 55.7473 40.5269 55.4726 40.036C55.1934 39.5049 55.0477 38.9146 55.0477 38.3154C55.0477 37.7162 55.1934 37.1259 55.4726 36.5948C55.7415 36.0894 56.1454 35.6675 56.64 35.3756C57.1393 35.0907 57.7066 34.9446 58.2823 34.9529C58.8645 34.943 59.4386 35.0891 59.9444 35.3756C60.4337 35.6568 60.8372 36.0646 61.1119 36.5555C61.3847 37.0885 61.5269 37.6781 61.5269 38.2761C61.5269 38.8741 61.3847 39.4637 61.1119 39.9967C60.8372 40.4876 60.4337 40.8954 59.9444 41.1765C59.4386 41.4631 58.8645 41.6091 58.2823 41.5993C57.7103 41.6195 57.1432 41.4871 56.64 41.2159ZM59.608 40.7341C60.0048 40.5027 60.3247 40.1609 60.5281 39.7509C60.7559 39.2922 60.8743 38.7876 60.8743 38.2761C60.8743 37.7646 60.7559 37.26 60.5281 36.8013C60.3228 36.3926 60.0034 36.0512 59.608 35.8181C59.2064 35.5986 58.7555 35.4835 58.2972 35.4835C57.8388 35.4835 57.3879 35.5986 56.9863 35.8181C56.591 36.0512 56.2716 36.3926 56.0662 36.8013C55.8385 37.26 55.72 37.7646 55.72 38.2761C55.72 38.7876 55.8385 39.2922 56.0662 39.7509C56.2697 40.1609 56.5895 40.5027 56.9863 40.7341C57.3879 40.9536 57.8388 41.0686 58.2972 41.0686C58.7555 41.0686 59.2064 40.9536 59.608 40.7341Z" fill="white"/>
<path d="M69.6005 35.1495V41.5797H68.9475V36.4474L66.6423 41.5797H66.1575L63.8524 36.467V41.5797H63.1994V35.1495H63.8919L66.395 40.7145L68.898 35.1495H69.6005Z" fill="white"/>
<path d="M77.9604 35.1495V41.5797H77.3074V36.4474L75.0023 41.5797H74.5175L72.2123 36.467V41.5797H71.5593V35.1495H72.2123L74.7153 40.7145L77.2184 35.1495H77.9604Z" fill="white"/>
<path d="M80.5723 35.592V38.0304H83.0951V38.5711H80.5723V41.039H83.3424V41.5797H79.9193V35.0513H83.3424V35.592H80.5723Z" fill="white"/>
<path d="M88.586 41.5796L86.9733 38.8562H85.7564V41.5796H85.0738V35.061H87.0525C87.653 35.019 88.247 35.2053 88.7146 35.5821C88.9018 35.7584 89.049 35.9724 89.1462 36.2098C89.2435 36.4472 89.2886 36.7025 89.2785 36.9586C89.2927 37.3969 89.1489 37.8258 88.8729 38.1679C88.5598 38.5167 88.1319 38.7433 87.6659 38.807L89.3577 41.5796H88.586ZM85.7564 38.3252H87.0525C87.4726 38.3557 87.8881 38.2216 88.21 37.9516C88.339 37.823 88.4399 37.6693 88.5063 37.5001C88.5727 37.3309 88.6032 37.1499 88.5959 36.9684C88.6051 36.7876 88.5765 36.6068 88.5117 36.4376C88.447 36.2683 88.3477 36.1143 88.2199 35.9852C87.8929 35.7173 87.4753 35.5837 87.0525 35.6116H85.7564V38.3252Z" fill="white"/>
<path d="M91.1979 36.5949C91.4592 36.0906 91.8566 35.6684 92.3455 35.3757C92.8456 35.1057 93.4091 34.9733 93.9779 34.9923C94.6418 34.9722 95.2966 35.1503 95.8577 35.5035C96.3853 35.8579 96.7841 36.3715 96.9954 36.9685H96.2336C96.0526 36.5623 95.7527 36.2197 95.3729 35.9853C94.9618 35.7071 94.4753 35.5597 93.9779 35.5625C93.5233 35.5539 93.075 35.6695 92.6819 35.8968C92.2887 36.1265 91.9748 36.4693 91.7816 36.88C91.5539 37.3387 91.4354 37.8433 91.4354 38.3548C91.4354 38.8663 91.5539 39.3709 91.7816 39.8296C91.9763 40.2393 92.2898 40.5817 92.6819 40.8128C93.0742 41.043 93.5224 41.1621 93.9779 41.1569C94.4696 41.1696 94.9543 41.0398 95.3729 40.7833C95.7535 40.5499 96.0536 40.207 96.2336 39.8001H96.9954C96.7875 40.3937 96.3874 40.902 95.8577 41.2454C95.2961 41.5976 94.6417 41.7755 93.9779 41.7567C93.4055 41.7636 92.8417 41.6176 92.3455 41.3339C91.8584 41.0564 91.4604 40.6473 91.1979 40.1541C90.8858 39.5964 90.7384 38.9625 90.7725 38.3253C90.7599 37.7215 90.9066 37.1249 91.1979 36.5949Z" fill="white"/>
<path d="M99.4193 35.592V38.0304H101.893V38.5711H99.4193V41.039H102.189V41.5797H98.7664V35.0513H102.189V35.592H99.4193Z" fill="white"/>
<path d="M111.974 41.5797L111.084 40.6752C110.806 40.9912 110.47 41.2516 110.094 41.4421C109.708 41.6121 109.29 41.696 108.868 41.6879C108.464 41.6984 108.064 41.6142 107.7 41.4421C107.378 41.2889 107.106 41.0465 106.919 40.744C106.713 40.4028 106.614 40.0088 106.633 39.6117C106.653 39.2146 106.79 38.832 107.027 38.5121C107.326 38.1391 107.729 37.8621 108.185 37.7157C107.991 37.5146 107.827 37.286 107.7 37.0373C107.6 36.8252 107.549 36.5933 107.552 36.3589C107.551 36.1719 107.591 35.9869 107.669 35.8171C107.748 35.6472 107.863 35.4965 108.007 35.3757C108.345 35.1058 108.771 34.9693 109.204 34.9922C109.621 34.9751 110.029 35.1196 110.342 35.3954C110.488 35.5249 110.602 35.6866 110.674 35.8675C110.746 36.0485 110.775 36.2437 110.757 36.4375H110.104C110.113 36.3157 110.095 36.1934 110.05 36.0795C110.006 35.9655 109.936 35.8629 109.847 35.7788C109.662 35.6162 109.422 35.5285 109.174 35.533C108.918 35.5182 108.666 35.6028 108.472 35.769C108.385 35.845 108.316 35.939 108.27 36.0443C108.224 36.1496 108.202 36.2637 108.205 36.3786C108.208 36.5833 108.266 36.7834 108.373 36.9586C108.52 37.1957 108.693 37.4165 108.887 37.6174L111.044 39.7903C111.173 39.6101 111.292 39.423 111.4 39.2298L112.004 38.2466H112.706L111.994 39.4658C111.839 39.7333 111.671 39.9926 111.489 40.2425L112.855 41.619L111.974 41.5797ZM109.807 40.9013C110.125 40.7383 110.405 40.5105 110.629 40.2327L108.541 38.1287C108.178 38.2058 107.852 38.4019 107.616 38.6855C107.379 38.969 107.245 39.3235 107.235 39.692C107.231 39.9526 107.303 40.2087 107.443 40.4294C107.577 40.6442 107.769 40.8178 107.997 40.9308C108.251 41.0605 108.533 41.1247 108.818 41.1176C109.16 41.1242 109.5 41.0501 109.807 40.9013Z" fill="white"/>
<path d="M118.078 41.4223C117.771 41.2816 117.506 41.0649 117.307 40.7931C117.119 40.5314 117.016 40.2195 117.01 39.8984H117.702C117.733 40.2204 117.885 40.519 118.128 40.7341C118.43 40.9891 118.821 41.1162 119.216 41.0881C119.599 41.111 119.976 40.9919 120.275 40.7538C120.4 40.6471 120.499 40.5141 120.566 40.3644C120.633 40.2148 120.665 40.0522 120.661 39.8885C120.673 39.6466 120.596 39.4086 120.443 39.22C120.306 39.0438 120.12 38.9107 119.909 38.8365C119.622 38.7251 119.328 38.6331 119.028 38.5612C118.691 38.4671 118.361 38.3521 118.039 38.2171C117.78 38.1013 117.555 37.9219 117.386 37.696C117.187 37.4077 117.089 37.0619 117.109 36.7128C117.103 36.3943 117.196 36.0818 117.376 35.8181C117.561 35.5471 117.817 35.3326 118.118 35.1987C118.461 35.039 118.837 34.9615 119.216 34.9725C119.741 34.9484 120.258 35.1046 120.68 35.415C120.858 35.5535 121.006 35.7256 121.117 35.9214C121.227 36.1171 121.297 36.3326 121.323 36.5555H120.611C120.554 36.2709 120.396 36.0162 120.166 35.8377C119.874 35.6408 119.529 35.5355 119.177 35.5355C118.824 35.5355 118.479 35.6408 118.187 35.8377C118.058 35.9395 117.955 36.0699 117.887 36.2185C117.818 36.3671 117.785 36.5297 117.791 36.6931C117.778 36.9304 117.852 37.1645 117.999 37.3519C118.148 37.5204 118.334 37.6518 118.543 37.7353C118.83 37.8493 119.124 37.9445 119.424 38.0205C119.76 38.1169 120.09 38.2318 120.413 38.3646C120.675 38.484 120.903 38.6665 121.076 38.8955C121.279 39.1822 121.376 39.5292 121.353 39.8787C121.351 40.184 121.265 40.483 121.106 40.7439C120.931 41.0283 120.681 41.2596 120.384 41.4125C120.027 41.5867 119.633 41.6711 119.236 41.6583C118.837 41.6639 118.442 41.5834 118.078 41.4223Z" fill="white"/>
<path d="M127.922 35.061V41.5797H127.269V38.5317H123.718V41.5797H123.065V35.061H123.718V38.0106H127.269V35.061H127.922Z" fill="white"/>
<path d="M131.187 41.2159C130.698 40.9347 130.294 40.527 130.02 40.0361C129.741 39.505 129.595 38.9147 129.595 38.3155C129.595 37.7163 129.741 37.126 130.02 36.5949C130.294 36.1039 130.698 35.6962 131.187 35.415C131.696 35.1249 132.272 34.9689 132.859 34.962C133.446 34.9551 134.025 35.0975 134.541 35.3757C135.027 35.6575 135.427 36.0653 135.699 36.5555C135.978 37.0866 136.124 37.677 136.124 38.2761C136.124 38.8753 135.978 39.4656 135.699 39.9968C135.427 40.487 135.027 40.8948 134.541 41.1766C134.033 41.4537 133.463 41.599 132.884 41.599C132.305 41.599 131.735 41.4537 131.227 41.1766L131.187 41.2159ZM134.155 40.7342C134.557 40.5086 134.878 40.1651 135.075 39.751C135.303 39.2923 135.422 38.7876 135.422 38.2761C135.422 37.7647 135.303 37.26 135.075 36.8013C134.876 36.3882 134.555 36.0452 134.155 35.8181C133.759 35.591 133.307 35.4754 132.849 35.4838C132.388 35.4751 131.934 35.5907 131.533 35.8181C131.138 36.0513 130.819 36.3926 130.613 36.8013C130.386 37.26 130.267 37.7647 130.267 38.2761C130.267 38.7876 130.386 39.2923 130.613 39.751C130.817 40.161 131.137 40.5028 131.533 40.7342C131.934 40.9616 132.388 41.0772 132.849 41.0684C133.304 41.0751 133.752 40.9596 134.145 40.7342H134.155Z" fill="white"/>
<path d="M141.387 38.3252C140.92 38.7012 140.325 38.8842 139.725 38.8365H138.409V41.619H137.747V35.061H139.725C140.323 35.0176 140.914 35.2041 141.377 35.5821C141.566 35.7533 141.714 35.9637 141.811 36.1981C141.909 36.4326 141.953 36.6855 141.941 36.9389C141.958 37.1963 141.916 37.454 141.82 37.6937C141.725 37.9333 141.577 38.149 141.387 38.3252ZM141.269 36.9782C141.279 36.7982 141.251 36.618 141.188 36.4489C141.125 36.2798 141.028 36.1253 140.903 35.995C140.564 35.7456 140.145 35.6269 139.725 35.6607H138.409V38.2859H139.725C140.754 38.2531 141.269 37.8041 141.269 36.9389V36.9782Z" fill="white"/>
<path d="M147.145 38.3252C146.676 38.6985 146.082 38.8812 145.483 38.8365H144.158V41.6189H143.505V35.061H145.483C146.081 35.0186 146.672 35.205 147.135 35.5821C147.323 35.7538 147.469 35.9645 147.565 36.199C147.661 36.4335 147.703 36.6862 147.69 36.9389C147.708 37.1956 147.668 37.4531 147.574 37.6928C147.48 37.9325 147.334 38.1485 147.145 38.3252ZM147.017 36.9782C147.029 36.798 147.002 36.6173 146.939 36.4479C146.876 36.2786 146.778 36.1242 146.651 35.995C146.316 35.7455 145.9 35.6265 145.483 35.6607H144.158V38.2859H145.483C146.502 38.2367 147.017 37.8041 147.017 36.9389V36.9782Z" fill="white"/>
<path d="M149.916 35.061V41.5797H149.263V35.061H149.916Z" fill="white"/>
<path d="M156.811 41.5797H156.158L152.527 36.1032V41.5797H151.874V35.061H152.527L156.158 40.5375V35.061H156.811V41.5797Z" fill="white"/>
<path d="M163.925 36.9685C163.744 36.5649 163.448 36.223 163.074 35.9853C162.668 35.7325 162.197 35.6026 161.718 35.6117C161.256 35.6049 160.801 35.7239 160.403 35.9558C160.007 36.1889 159.688 36.5303 159.483 36.939C159.261 37.3874 159.147 37.8801 159.147 38.3794C159.147 38.8787 159.261 39.3714 159.483 39.8198C159.688 40.2285 160.007 40.5698 160.403 40.803C160.793 41.0121 161.23 41.1215 161.674 41.1215C162.118 41.1215 162.555 41.0121 162.945 40.803C163.311 40.6064 163.615 40.3139 163.826 39.9574C164.061 39.5742 164.194 39.1376 164.212 38.6891H161.451V38.1582H164.904V38.6399C164.881 39.1864 164.718 39.7179 164.429 40.1835C164.152 40.6502 163.755 41.0348 163.279 41.2976C162.802 41.5603 162.263 41.6917 161.718 41.678C161.139 41.6875 160.569 41.5414 160.066 41.2552C159.577 40.9741 159.173 40.5663 158.899 40.0754C158.62 39.5443 158.474 38.954 158.474 38.3548C158.474 37.7556 158.62 37.1653 158.899 36.6342C159.162 36.1143 159.566 35.6783 160.066 35.3757C160.569 35.0895 161.139 34.9434 161.718 34.9529C162.367 34.9414 163.005 35.1229 163.549 35.474C164.078 35.8243 164.481 36.3344 164.696 36.9291L163.925 36.9685Z" fill="white"/>
</g>
<defs>
<clipPath id="clip0_2_165">
<rect width="208" height="48" fill="white"/>
</clipPath>
</defs>
</svg>
