<svg width="363" height="83" viewBox="0 0 363 83" fill="none" xmlns="http://www.w3.org/2000/svg">
<g clip-path="url(#clip0_2_46)">
<path d="M61.5187 82.983H-0.0172729V35.1586L30.3018 58.0592L61.5187 35.2096V82.983ZM2.81435 80.2458H58.6871V40.667L30.2845 61.4935L2.77982 40.769L2.81435 80.2458Z" fill="#161925"/>
<path d="M13.6056 81.6229H10.8257L10.9811 30.0751L30.7507 44.3052L50.244 30.0411V81.6229H47.4642V35.4815L30.768 47.7054L13.7437 35.4475L13.6056 81.6229Z" fill="#161925"/>
<path d="M57.9619 24.1927V32.6933H55.2339V24.1927C55.2339 12.2918 44.529 2.73714 31.3723 2.73714H29.7838C16.6272 2.73714 5.92226 12.3598 5.92226 24.1927V32.6933H3.09064V24.1927C3.09064 10.8637 15.0387 -0.0340576 29.732 -0.0340576H31.3205C46.0139 -0.0340576 57.9619 10.8637 57.9619 24.1927Z" fill="#161925"/>
<path d="M7.30354 32.7614C7.30696 33.3069 7.14582 33.841 6.84056 34.2962C6.5353 34.7513 6.09966 35.107 5.58887 35.3181C5.07808 35.5291 4.51514 35.5861 3.97142 35.4818C3.42771 35.3774 2.9277 35.1165 2.53479 34.732C2.14188 34.3475 1.87377 33.8567 1.76444 33.322C1.6551 32.7873 1.70948 32.2327 1.92066 31.7284C2.13185 31.2241 2.49034 30.793 2.95069 30.4896C3.41104 30.1862 3.9525 30.0242 4.50645 30.0242C4.87295 30.022 5.23628 30.0911 5.57554 30.2277C5.9148 30.3642 6.22329 30.5655 6.48325 30.8199C6.74321 31.0743 6.94952 31.3768 7.0903 31.71C7.23107 32.0432 7.30354 32.4005 7.30354 32.7614Z" fill="#161925"/>
<path d="M59.205 32.7614C59.205 33.3027 59.042 33.8319 58.7366 34.2821C58.4311 34.7322 57.997 35.083 57.489 35.2902C56.9811 35.4974 56.4221 35.5516 55.8829 35.446C55.3437 35.3404 54.8483 35.0797 54.4596 34.6969C54.0708 34.3141 53.8061 33.8263 53.6988 33.2954C53.5915 32.7644 53.6466 32.214 53.857 31.7139C54.0674 31.2137 54.4237 30.7862 54.8808 30.4855C55.338 30.1847 55.8754 30.0242 56.4252 30.0242C57.1625 30.0242 57.8695 30.3126 58.3908 30.8259C58.9122 31.3392 59.205 32.0354 59.205 32.7614Z" fill="#161925"/>
<path d="M94.9456 46.2603V33.2373L87.1587 44.6622L79.4062 33.2373V46.2603H75.4178V20.6224L87.1241 37.7937L98.8305 20.6224V46.2603H94.9456Z" fill="#161925"/>
<path d="M117.512 41.0069H108.655L106.531 46.2603H102.249L113.075 20.6224L123.883 46.2603H119.619L117.512 41.0069ZM116.096 37.6067L113.075 30.1091L110.053 37.5727L116.096 37.6067Z" fill="#161925"/>
<path d="M146.744 46.2603V33.2373L138.957 44.6622L131.204 33.2373V46.2603H127.319V20.6224L139.026 37.7937L150.732 20.6224V46.2603H146.744Z" fill="#161925"/>
<path d="M169.414 41.0069H160.556L158.45 46.2603H154.151L164.994 20.6224L175.785 46.2603H171.52L169.414 41.0069ZM167.998 37.6067L164.994 30.1431L161.972 37.6067H167.998Z" fill="#161925"/>
<path d="M208.78 46.2603V33.2373L200.993 44.6622L193.189 33.2373V46.2603H189.304V20.6224L200.993 37.7937L212.7 20.6224V46.2603H208.78Z" fill="#161925"/>
<path d="M231.347 41.0069H222.489L220.383 46.2603H216.084L226.927 20.6224L237.718 46.2603H233.471L231.347 41.0069ZM229.948 37.6067L226.927 30.1431L223.905 37.6067H229.948Z" fill="#161925"/>
<path d="M258.282 46.2604H253.879L247.611 37.9638H244.763V46.2604H240.86V21.7446H248.25C249.402 21.6827 250.554 21.8698 251.625 22.2927C252.696 22.7157 253.66 23.3642 254.449 24.1928C255.819 25.7708 256.539 27.7964 256.469 29.8712C256.537 31.9354 255.816 33.9496 254.449 35.5156C253.662 36.3631 252.67 37.0006 251.565 37.3687L258.282 46.2604ZM248.25 34.5295C248.911 34.5775 249.574 34.4838 250.194 34.2549C250.814 34.0259 251.376 33.6672 251.842 33.2034C252.634 32.249 253.029 31.0336 252.947 29.8032C253.023 28.5736 252.628 27.3606 251.842 26.4029C251.372 25.9471 250.808 25.5959 250.188 25.373C249.569 25.1501 248.908 25.0607 248.25 25.1108H244.797V34.4275L248.25 34.5295Z" fill="#161925"/>
<path d="M271.421 37.0117V33.6115H280.054V43.7102C277.84 45.5324 275.011 46.4672 272.129 46.3284C265.551 46.3284 259.853 42.3841 259.853 33.6115C259.853 24.8388 267.847 21.8126 272.077 21.8126C274.009 21.8905 275.912 22.293 277.706 23.0027V27.389C276.019 26.3473 274.084 25.7609 272.095 25.6889C270.027 25.9269 268.117 26.8924 266.715 28.4076C265.313 29.9228 264.515 31.8856 264.467 33.9346C264.418 35.9835 265.123 37.9807 266.452 39.5584C267.781 41.136 269.644 42.1878 271.697 42.5201C273.251 42.5744 274.795 42.2656 276.204 41.6191V36.9607L271.421 37.0117Z" fill="#161925"/>
<path d="M297.545 41.0069H288.687L286.598 46.2603H282.282L293.107 20.6224L303.864 46.2603H299.599L297.545 41.0069ZM296.129 37.6067L293.107 30.1431L290.051 37.5727L296.129 37.6067Z" fill="#161925"/>
<path d="M324.445 46.2604H320.042L313.775 37.9638H310.926V46.2604H307.024V21.7446H314.414C315.566 21.6827 316.717 21.8698 317.788 22.2927C318.859 22.7157 319.823 23.3642 320.612 24.1928C321.982 25.7708 322.702 27.7964 322.632 29.8712C322.7 31.9354 321.979 33.9496 320.612 35.5156C319.811 36.3703 318.8 37.0084 317.677 37.3687L324.445 46.2604ZM314.414 34.5295C315.074 34.5775 315.737 34.4838 316.357 34.2549C316.977 34.0259 317.539 33.6672 318.005 33.2034C318.798 32.249 319.193 31.0336 319.11 29.8032C319.186 28.5736 318.792 27.3606 318.005 26.4029C317.535 25.9471 316.971 25.5959 316.352 25.373C315.732 25.1501 315.071 25.0607 314.414 25.1108H310.96V34.4275L314.414 34.5295Z" fill="#161925"/>
<path d="M331.369 31.7244H340.468V35.1246H331.369V42.7241H342.402V46.1244H327.484V21.7446H342.402V25.1449H331.369V31.7244Z" fill="#161925"/>
<path d="M363 25.1958H356.094V46.2603H352.209V25.1958H345.302V21.7955H362.914L363 25.1958Z" fill="#161925"/>
<path d="M75.2624 61.5444V65.7608H79.5962V66.6958H75.2624V70.9631H80.0796V71.8982H74.1056V60.6094H80.0796V61.5444H75.2624Z" fill="#161925"/>
<path d="M83.3774 63.2786C83.8335 62.4066 84.527 61.6766 85.3803 61.1705C86.2443 60.6751 87.2295 60.4223 88.2291 60.4394C89.3878 60.4048 90.5304 60.7127 91.5097 61.3235C92.4304 61.9363 93.1265 62.8244 93.4953 63.8567H92.1485C91.839 63.1555 91.3214 62.5628 90.6636 62.1565C89.9364 61.7055 89.0881 61.4804 88.2291 61.5105C87.4357 61.4956 86.6533 61.6956 85.9673 62.0885C85.276 62.4848 84.7223 63.0773 84.3788 63.7886C83.9925 64.585 83.792 65.4563 83.792 66.3388C83.792 67.2213 83.9925 68.0927 84.3788 68.889C84.725 69.5985 85.278 70.1904 85.9673 70.5891C86.6519 70.9872 87.4341 71.193 88.2291 71.1842C89.0871 71.2061 89.9331 70.9816 90.6636 70.5381C91.3228 70.1335 91.8408 69.5403 92.1485 68.838H93.4953C93.0874 69.7814 92.3862 70.5731 91.4924 71.0992C90.5185 71.7076 89.3821 72.0155 88.2291 71.9832C87.2295 72.0003 86.2443 71.7475 85.3803 71.2522C84.5301 70.7724 83.8356 70.0649 83.3774 69.212C82.8725 68.3126 82.6165 67.2983 82.635 66.2708C82.6131 65.2267 82.869 64.1951 83.3774 63.2786Z" fill="#161925"/>
<path d="M98.8477 71.2692C97.9938 70.783 97.2897 70.0779 96.8103 69.229C96.3232 68.3107 96.0688 67.2899 96.0688 66.2538C96.0688 65.2177 96.3232 64.197 96.8103 63.2786C97.2796 62.4047 97.9846 61.6752 98.8477 61.1705C99.7191 60.6777 100.709 60.4252 101.714 60.4394C102.73 60.4224 103.732 60.6749 104.615 61.1705C105.469 61.6567 106.173 62.3617 106.652 63.2106C107.128 64.1323 107.376 65.1517 107.376 66.1858C107.376 67.2199 107.128 68.2393 106.652 69.161C106.173 70.0099 105.469 70.715 104.615 71.2012C103.732 71.6967 102.73 71.9492 101.714 71.9322C100.716 71.9672 99.7258 71.7382 98.8477 71.2692V71.2692ZM104.028 70.4361C104.72 70.036 105.278 69.445 105.633 68.736C106.031 67.9428 106.237 67.0703 106.237 66.1858C106.237 65.3014 106.031 64.4288 105.633 63.6356C105.275 62.9289 104.717 62.3387 104.028 61.9355C103.327 61.556 102.54 61.357 101.74 61.357C100.94 61.357 100.153 61.556 99.452 61.9355C98.7621 62.3387 98.2047 62.9289 97.8463 63.6356C97.4489 64.4288 97.2421 65.3014 97.2421 66.1858C97.2421 67.0703 97.4489 67.9428 97.8463 68.736C98.2014 69.445 98.7596 70.036 99.452 70.4361C100.153 70.8156 100.94 71.0146 101.74 71.0146C102.54 71.0146 103.327 70.8156 104.028 70.4361V70.4361Z" fill="#161925"/>
<path d="M121.466 60.7794V71.8982H120.327V63.0236L116.304 71.8982H115.458L111.435 63.0576V71.8982H110.295V60.7794H111.504L115.872 70.4021L120.24 60.7794H121.466Z" fill="#161925"/>
<path d="M136.056 60.7794V71.8982H134.916V63.0236L130.893 71.8982H130.047L126.024 63.0576V71.8982H124.885V60.7794H126.024L130.393 70.4021L134.761 60.7794H136.056Z" fill="#161925"/>
<path d="M140.614 61.5444V65.7608H145.017V66.6958H140.614V70.9631H145.449V71.8982H139.475V60.6094H145.449V61.5444H140.614Z" fill="#161925"/>
<path d="M154.6 71.8982L151.785 67.1889H149.662V71.8982H148.47V60.6264H151.923C152.971 60.5538 154.008 60.8759 154.824 61.5275C155.151 61.8323 155.408 62.2023 155.577 62.6128C155.747 63.0233 155.826 63.4648 155.808 63.9076C155.833 64.6655 155.582 65.4072 155.1 65.9988C154.554 66.602 153.807 66.9937 152.994 67.1039L155.946 71.8982H154.6ZM149.662 66.2708H151.923C152.657 66.3235 153.382 66.0916 153.943 65.6247C154.169 65.4024 154.345 65.1365 154.461 64.844C154.576 64.5514 154.63 64.2384 154.617 63.9246C154.633 63.612 154.583 63.2994 154.47 63.0067C154.357 62.7141 154.184 62.4477 153.961 62.2245C153.39 61.7613 152.661 61.5302 151.923 61.5785H149.662V66.2708Z" fill="#161925"/>
<path d="M159.158 63.2785C159.614 62.4065 160.307 61.6766 161.161 61.1704C162.033 60.7035 163.017 60.4746 164.01 60.5073C165.168 60.4727 166.311 60.7806 167.29 61.3914C168.211 62.0042 168.907 62.8923 169.276 63.9246H167.946C167.63 63.2222 167.107 62.6298 166.444 62.2245C165.727 61.7434 164.878 61.4885 164.01 61.4934C163.216 61.4785 162.434 61.6785 161.748 62.0715C161.061 62.4687 160.514 63.0615 160.177 63.7716C159.779 64.5647 159.572 65.4373 159.572 66.3218C159.572 67.2062 159.779 68.0788 160.177 68.8719C160.516 69.5803 161.064 70.1723 161.748 70.5721C162.432 70.9702 163.215 71.176 164.01 71.1671C164.868 71.1891 165.713 70.9646 166.444 70.5211C167.108 70.1174 167.632 69.5245 167.946 68.8209H169.276C168.913 69.8473 168.214 70.7262 167.29 71.3201C166.31 71.929 165.168 72.2368 164.01 72.2042C163.011 72.2162 162.027 71.9637 161.161 71.4731C160.311 70.9933 159.616 70.2859 159.158 69.433C158.613 68.4687 158.356 67.3726 158.415 66.2708C158.393 65.2267 158.649 64.1951 159.158 63.2785V63.2785Z" fill="#161925"/>
<path d="M173.506 61.5444V65.7608H177.822V66.6958H173.506V70.9631H178.34V71.8982H172.366V60.6094H178.34V61.5444H173.506Z" fill="#161925"/>
<path d="M195.416 71.8982L193.862 70.3341C193.378 70.8806 192.792 71.3308 192.136 71.6602C191.462 71.9542 190.731 72.0993 189.995 72.0852C189.291 72.1034 188.593 71.9578 187.957 71.6602C187.394 71.3953 186.921 70.9762 186.593 70.4531C186.235 69.8631 186.062 69.1819 186.096 68.4952C186.129 67.8084 186.369 67.1469 186.783 66.5938C187.304 65.9488 188.007 65.4698 188.804 65.2167C188.464 64.869 188.179 64.4737 187.957 64.0436C187.782 63.6768 187.694 63.2758 187.698 62.8705C187.697 62.5472 187.767 62.2274 187.904 61.9336C188.041 61.6399 188.242 61.3793 188.493 61.1704C189.082 60.7037 189.826 60.4676 190.582 60.5074C191.31 60.4776 192.022 60.7275 192.567 61.2044C192.823 61.4284 193.021 61.7079 193.147 62.0208C193.273 62.3337 193.323 62.6713 193.293 63.0065H192.153C192.169 62.7958 192.136 62.5843 192.059 62.3873C191.981 62.1904 191.86 62.0128 191.704 61.8675C191.381 61.5863 190.962 61.4346 190.53 61.4424C190.083 61.4168 189.644 61.5631 189.304 61.8505C189.153 61.982 189.033 62.1445 188.952 62.3266C188.872 62.5087 188.833 62.706 188.838 62.9045C188.844 63.2585 188.946 63.6046 189.132 63.9076C189.389 64.3176 189.69 64.6994 190.029 65.0467L193.793 68.804C194.018 68.4924 194.226 68.1689 194.415 67.8349L195.468 66.1348H196.694L195.451 68.2429C195.181 68.7054 194.887 69.1537 194.57 69.586L196.953 71.9662L195.416 71.8982ZM191.635 70.7251C192.19 70.4433 192.678 70.0494 193.068 69.569L189.425 65.9308C188.792 66.0641 188.223 66.4032 187.81 66.8936C187.397 67.3839 187.163 67.9969 187.146 68.6339C187.139 69.0846 187.265 69.5275 187.509 69.909C187.743 70.2806 188.078 70.5808 188.475 70.7761C188.918 71.0003 189.411 71.1114 189.909 71.0991C190.506 71.1105 191.098 70.9824 191.635 70.7251Z" fill="#161925"/>
<path d="M206.07 71.6261C205.534 71.3827 205.07 71.0081 204.723 70.538C204.396 70.0856 204.215 69.5463 204.205 68.9909H205.413C205.466 69.5478 205.732 70.0642 206.156 70.436C206.683 70.8771 207.365 71.0968 208.055 71.0481C208.722 71.0878 209.381 70.8818 209.903 70.47C210.121 70.2856 210.294 70.0557 210.411 69.7968C210.527 69.538 210.584 69.2569 210.576 68.9739C210.598 68.5557 210.463 68.144 210.196 67.8178C209.956 67.5133 209.633 67.2831 209.264 67.1548C208.763 66.9621 208.25 66.803 207.727 66.6788C207.139 66.516 206.563 66.3172 206 66.0837C205.549 65.8834 205.157 65.5733 204.861 65.1827C204.513 64.6841 204.343 64.0863 204.377 63.4825C204.367 62.9318 204.53 62.3914 204.844 61.9354C205.166 61.4668 205.614 61.0959 206.139 60.8643C206.738 60.5883 207.394 60.4543 208.055 60.4733C208.971 60.4316 209.873 60.7018 210.61 61.2384C210.92 61.478 211.179 61.7756 211.372 62.114C211.564 62.4525 211.687 62.8252 211.733 63.2105H210.49C210.39 62.7184 210.114 62.278 209.713 61.9694C209.203 61.6288 208.602 61.4467 207.986 61.4467C207.37 61.4467 206.769 61.6288 206.259 61.9694C206.035 62.1453 205.855 62.3709 205.735 62.6278C205.615 62.8848 205.558 63.1659 205.569 63.4485C205.546 63.8589 205.675 64.2636 205.931 64.5876C206.191 64.879 206.516 65.1062 206.881 65.2507C207.382 65.4477 207.895 65.6124 208.418 65.7437C209.004 65.9105 209.58 66.1091 210.144 66.3387C210.601 66.5452 210.999 66.8608 211.301 67.2568C211.655 67.7525 211.825 68.3525 211.785 68.9569C211.78 69.4849 211.631 70.0018 211.353 70.453C211.048 70.9448 210.612 71.3447 210.092 71.6091C209.47 71.9103 208.783 72.0562 208.09 72.0342C207.394 72.0439 206.705 71.9046 206.07 71.6261V71.6261Z" fill="#161925"/>
<path d="M223.249 60.6263V71.8982H222.11V66.6278H215.911V71.8982H214.772V60.6263H215.911V65.7267H222.11V60.6263H223.249Z" fill="#161925"/>
<path d="M228.947 71.2691C228.093 70.7829 227.389 70.0779 226.91 69.229C226.422 68.3106 226.168 67.2899 226.168 66.2538C226.168 65.2177 226.422 64.1969 226.91 63.2786C227.389 62.4297 228.093 61.7246 228.947 61.2384C229.836 60.7367 230.84 60.467 231.865 60.4551C232.889 60.4432 233.9 60.6895 234.8 61.1704C235.649 61.6577 236.347 62.3629 236.82 63.2106C237.307 64.1289 237.562 65.1497 237.562 66.1858C237.562 67.2219 237.307 68.2426 236.82 69.161C236.347 70.0087 235.649 70.7139 234.8 71.2011C233.914 71.6803 232.919 71.9316 231.908 71.9316C230.897 71.9316 229.902 71.6803 229.016 71.2011L228.947 71.2691ZM234.127 70.4361C234.827 70.046 235.388 69.4522 235.732 68.736C236.13 67.9428 236.337 67.0702 236.337 66.1858C236.337 65.3013 236.13 64.4288 235.732 63.6356C235.385 62.9213 234.825 62.3282 234.127 61.9355C233.434 61.5427 232.646 61.3429 231.848 61.3574C231.043 61.3424 230.25 61.5421 229.551 61.9355C228.861 62.3386 228.304 62.9289 227.945 63.6356C227.548 64.4288 227.341 65.3013 227.341 66.1858C227.341 67.0702 227.548 67.9428 227.945 68.736C228.301 69.445 228.859 70.036 229.551 70.4361C230.25 70.8294 231.043 71.0292 231.848 71.0141C232.641 71.0256 233.422 70.8259 234.109 70.4361H234.127Z" fill="#161925"/>
<path d="M246.748 66.2708C245.932 66.9209 244.894 67.2374 243.847 67.1549H241.551V71.9662H240.394V60.6264H243.847C244.89 60.5513 245.923 60.8739 246.731 61.5275C247.06 61.8236 247.318 62.1873 247.488 62.5927C247.658 62.9981 247.736 63.4355 247.715 63.8736C247.743 64.3187 247.671 64.7643 247.504 65.1787C247.337 65.5932 247.079 65.9661 246.748 66.2708V66.2708ZM246.541 63.9417C246.558 63.6303 246.511 63.3188 246.401 63.0263C246.291 62.7339 246.121 62.4668 245.902 62.2415C245.311 61.8103 244.581 61.6049 243.847 61.6635H241.551V66.2028H243.847C245.643 66.1461 246.541 65.3698 246.541 63.8736V63.9417Z" fill="#161925"/>
<path d="M256.797 66.2707C255.978 66.9162 254.942 67.2321 253.896 67.1548H251.583V71.9662H250.443V60.6263H253.896C254.939 60.553 255.971 60.8754 256.78 61.5274C257.106 61.8244 257.362 62.1886 257.529 62.5942C257.696 62.9997 257.771 63.4365 257.747 63.8736C257.778 64.3174 257.709 64.7626 257.545 65.1771C257.381 65.5917 257.125 65.9652 256.797 66.2707V66.2707ZM256.572 63.9416C256.593 63.6299 256.547 63.3175 256.437 63.0246C256.327 62.7317 256.155 62.4649 255.934 62.2415C255.349 61.8099 254.624 61.6043 253.896 61.6634H251.583V66.2027H253.896C255.675 66.1177 256.572 65.3697 256.572 63.8736V63.9416Z" fill="#161925"/>
<path d="M261.631 60.6263V71.8982H260.492V60.6263H261.631Z" fill="#161925"/>
<path d="M273.666 71.8982H272.526L266.19 62.4285V71.8982H265.05V60.6263H266.19L272.526 70.096V60.6263H273.666V71.8982Z" fill="#161925"/>
<path d="M286.08 63.9246C285.765 63.2268 285.249 62.6355 284.595 62.2245C283.887 61.7874 283.065 61.5629 282.23 61.5784C281.424 61.5668 280.629 61.7726 279.933 62.1735C279.243 62.5767 278.686 63.1669 278.328 63.8736C277.942 64.649 277.741 65.5009 277.741 66.3643C277.741 67.2277 277.942 68.0796 278.328 68.855C278.686 69.5617 279.243 70.1519 279.933 70.5551C280.615 70.9167 281.378 71.106 282.152 71.106C282.927 71.106 283.689 70.9167 284.371 70.5551C285.009 70.2151 285.54 69.7094 285.907 69.093C286.318 68.4303 286.55 67.6754 286.581 66.8998H281.764V65.9818H287.789V66.8148C287.75 67.7597 287.464 68.6788 286.961 69.484C286.478 70.2909 285.784 70.956 284.953 71.4104C284.121 71.8647 283.181 72.0918 282.23 72.0682C281.219 72.0846 280.223 71.8321 279.346 71.3371C278.492 70.851 277.788 70.1459 277.309 69.297C276.822 68.3786 276.567 67.3579 276.567 66.3218C276.567 65.2857 276.822 64.2649 277.309 63.3466C277.768 62.4477 278.474 61.6937 279.346 61.1704C280.223 60.6755 281.219 60.4229 282.23 60.4394C283.362 60.4195 284.474 60.7333 285.424 61.3404C286.348 61.9461 287.05 62.8282 287.427 63.8566L286.08 63.9246Z" fill="#161925"/>
</g>
<defs>
<clipPath id="clip0_2_46">
<rect width="363" height="83" fill="white"/>
</clipPath>
</defs>
</svg>
