<svg width="206" height="94" viewBox="0 0 206 94" fill="none" xmlns="http://www.w3.org/2000/svg">
<path d="M79.4946 76.8356C79.4946 77.2126 79.543 77.5895 79.543 77.9762C79.5404 81.6824 78.067 85.2361 75.4463 87.8568C72.8256 90.4775 69.2719 91.9509 65.5657 91.9535" stroke="#363636" stroke-width="3" stroke-miterlimit="10"/>
<path d="M172.745 77.3479H144.838C144.838 77.5799 144.838 77.8118 144.838 78.0438C144.934 81.6859 146.448 85.1467 149.058 87.6888C151.668 90.231 155.168 91.6536 158.811 91.6536C162.454 91.6536 165.954 90.231 168.564 87.6888C171.173 85.1467 172.688 81.6859 172.783 78.0438C172.764 77.8118 172.754 77.5799 172.745 77.3479Z" stroke="#363636" stroke-width="3" stroke-miterlimit="10"/>
<path d="M166.423 78.0438C166.352 80.0208 165.518 81.8933 164.094 83.2671C162.671 84.6408 160.77 85.4085 158.791 85.4085C156.813 85.4085 154.912 84.6408 153.489 83.2671C152.065 81.8933 151.23 80.0208 151.16 78.0438C151.16 77.8118 151.16 77.5799 151.16 77.3479H166.365C166.404 77.5799 166.423 77.8118 166.423 78.0438Z" stroke="#363636" stroke-width="3" stroke-miterlimit="10"/>
<path d="M63.5646 85.6705C65.8411 85.6688 68.034 84.8127 69.7095 83.2715C71.3849 81.7303 72.4208 79.6163 72.6121 77.3479" stroke="#363636" stroke-width="3" stroke-miterlimit="10"/>
<path d="M44.1843 77.3576H135.501V7.3744C135.501 4.40688 133.393 2 130.803 2H44.1843" stroke="#363636" stroke-width="3" stroke-miterlimit="10"/>
<path d="M172.744 77.3576H183.648C184.155 77.3438 184.656 77.2301 185.119 77.023C185.583 76.8158 186.002 76.5193 186.351 76.1504C186.7 75.7814 186.973 75.3473 187.155 74.8727C187.336 74.3982 187.422 73.8926 187.408 73.3848V52.0129C187.422 51.5051 187.336 50.9995 187.155 50.5249C186.973 50.0504 186.7 49.6162 186.351 49.2473C186.002 48.8783 185.583 48.5818 185.119 48.3747C184.656 48.1675 184.155 48.0538 183.648 48.0401H135.5V77.3576H144.838" stroke="#363636" stroke-width="3" stroke-miterlimit="10"/>
<path d="M172.058 14.0537H176.301C178.061 14.0537 179.491 14.5467 179.491 15.1557V21.0424C179.491 21.6514 178.061 22.1347 176.301 22.1347H135.5V14.0537H172.058Z" stroke="#363636" stroke-width="3" stroke-miterlimit="10"/>
<path d="M187.128 64.5209H193.527V74.7961H187.128" stroke="#363636" stroke-width="3" stroke-miterlimit="10"/>
<path d="M135.5 55.2897H144.819" stroke="#363636" stroke-width="3" stroke-miterlimit="10"/>
<path d="M0 27.1127H54.4883" stroke="#363636" stroke-width="3" stroke-miterlimit="10"/>
<path d="M21.2366 14.5564H60.085" stroke="#363636" stroke-width="3" stroke-miterlimit="10"/>
<path d="M12.0922 2H30.3709" stroke="#363636" stroke-width="3" stroke-miterlimit="10"/>
<path d="M22.6675 77.3479H30.3715" stroke="#363636" stroke-width="3" stroke-miterlimit="10"/>
<path d="M27.558 85.6995H64.2315" stroke="#363636" stroke-width="3" stroke-miterlimit="10"/>
<path d="M53.889 39.6787H62.9172" stroke="#363636" stroke-width="3" stroke-miterlimit="10"/>
<path d="M14.7988 39.6787H47.4899" stroke="#363636" stroke-width="3" stroke-miterlimit="10"/>
<path d="M42.1834 52.2351H77.9773" stroke="#363636" stroke-width="3" stroke-miterlimit="10"/>
<path d="M0 64.7915H60.085" stroke="#363636" stroke-width="3" stroke-miterlimit="10"/>
<path d="M172.764 22.1347L179.491 48.0304H135.5V22.1347H172.764Z" stroke="#363636" stroke-width="3" stroke-miterlimit="10"/>
<path d="M119.175 2H94.8835V77.3769H119.175V2Z" stroke="#363636" stroke-width="3" stroke-miterlimit="10"/>
<path d="M166.423 23.169L172.764 47.0058H141.01V23.169H166.423Z" stroke="#363636" stroke-width="3" stroke-miterlimit="10"/>
<path d="M0 91.9535H205.948" stroke="#363636" stroke-width="3" stroke-miterlimit="10"/>
<path d="M124.471 2V76.8356" stroke="#363636" stroke-width="3" stroke-miterlimit="10"/>
</svg>
