<svg width="110" height="110" viewBox="0 0 110 110" fill="none" xmlns="http://www.w3.org/2000/svg">
<path d="M69.6068 39.817C66.6879 36.9524 62.9867 35.0157 58.9692 34.2508C54.9517 33.4858 50.7977 33.9269 47.0305 35.5185C43.2632 37.11 40.0512 39.7808 37.799 43.1944C35.5468 46.608 34.3552 50.6118 34.3743 54.7014C34.3934 58.791 35.6222 62.7835 37.9061 66.176C40.19 69.5685 43.4268 72.2092 47.2088 73.7656C50.9907 75.3219 55.1486 75.7243 59.1588 74.9219C63.1689 74.1196 66.852 72.1485 69.744 69.2568" stroke="#363636" stroke-width="3" stroke-miterlimit="10" stroke-linecap="round"/>
<path d="M68.0357 79.3628C67.9563 79.345 67.8812 79.3117 67.8147 79.2647C67.7483 79.2178 67.6917 79.1582 67.6484 79.0893C67.605 79.0205 67.5757 78.9437 67.5621 78.8635C67.5485 78.7833 67.5509 78.7011 67.5692 78.6218L69.6274 69.4009L60.4064 71.4591C60.3272 71.4767 60.2452 71.4785 60.1652 71.4644C60.0852 71.4503 60.0088 71.4205 59.9403 71.3769C59.8719 71.3333 59.8126 71.2766 59.7661 71.21C59.7195 71.1435 59.6865 71.0684 59.6689 70.9892C59.6513 70.9099 59.6495 70.8279 59.6637 70.7479C59.6778 70.668 59.7075 70.5915 59.7511 70.5231C59.7948 70.4546 59.8515 70.3954 59.918 70.3488C59.9845 70.3022 60.0596 70.2692 60.1389 70.2516L70.3066 68.0013C70.4079 67.9775 70.5135 67.9799 70.6135 68.0084C70.7135 68.0369 70.8046 68.0904 70.8781 68.1639C70.9516 68.2374 71.0051 68.3285 71.0336 68.4285C71.0621 68.5285 71.0645 68.6342 71.0407 68.7354L68.7835 78.9031C68.7611 79.0183 68.7036 79.1238 68.6189 79.205C68.5433 79.2791 68.45 79.3325 68.3479 79.3601C68.2458 79.3877 68.1383 79.3887 68.0357 79.3628Z" fill="#363636"/>
<path d="M55.6654 56.4889V41.9919" stroke="#363636" stroke-width="3" stroke-miterlimit="10" stroke-linecap="round"/>
<path d="M46.7188 64.4405L55.6653 55.4872" stroke="#363636" stroke-width="3" stroke-miterlimit="10" stroke-linecap="round"/>
<path d="M55.6658 57.4837C56.9578 57.4837 58.0053 56.4362 58.0053 55.1441C58.0053 53.852 56.9578 52.8046 55.6658 52.8046C54.3737 52.8046 53.3262 53.852 53.3262 55.1441C53.3262 56.4362 54.3737 57.4837 55.6658 57.4837Z" fill="white" stroke="#363636" stroke-width="3" stroke-miterlimit="10" stroke-linecap="round"/>
<path d="M56.8524 12.895H53.1407V21.4574H56.8524V12.895Z" stroke="#363636" stroke-width="2" stroke-miterlimit="10" stroke-linecap="round"/>
<path d="M56.8524 88.5427H53.1407V97.105H56.8524V88.5427Z" stroke="#363636" stroke-width="2" stroke-miterlimit="10" stroke-linecap="round"/>
<path d="M97.105 56.8524V53.1407H88.5426V56.8524H97.105Z" stroke="#363636" stroke-width="2" stroke-miterlimit="10" stroke-linecap="round"/>
<path d="M21.4574 56.8593V53.1476H12.8951V56.8593H21.4574Z" stroke="#363636" stroke-width="2" stroke-miterlimit="10" stroke-linecap="round"/>
<path d="M86.0778 26.5386L83.4532 23.9141L77.3987 29.9685L80.0233 32.5931L86.0778 26.5386Z" stroke="#363636" stroke-width="2" stroke-miterlimit="10" stroke-linecap="round"/>
<path d="M32.5962 80.0258L29.9716 77.4012L23.9171 83.4557L26.5417 86.0803L32.5962 80.0258Z" stroke="#363636" stroke-width="2" stroke-miterlimit="10" stroke-linecap="round"/>
<path d="M83.4643 86.0806L86.0889 83.4561L80.0344 77.4016L77.4098 80.0261L83.4643 86.0806Z" stroke="#363636" stroke-width="2" stroke-miterlimit="10" stroke-linecap="round"/>
<path d="M29.9717 32.5936L32.5963 29.969L26.5418 23.9145L23.9173 26.5391L29.9717 32.5936Z" stroke="#363636" stroke-width="2" stroke-miterlimit="10" stroke-linecap="round"/>
<path d="M55.0002 102.381C81.168 102.381 102.381 81.1678 102.381 55C102.381 28.8322 81.168 7.61902 55.0002 7.61902C28.8324 7.61902 7.61923 28.8322 7.61923 55C7.61923 81.1678 28.8324 102.381 55.0002 102.381Z" stroke="#363636" stroke-width="3" stroke-miterlimit="10" stroke-linecap="round"/>
<path d="M55 108C84.2711 108 108 84.2711 108 55C108 25.7289 84.2711 2 55 2C25.7289 2 2 25.7289 2 55C2 84.2711 25.7289 108 55 108Z" stroke="#363636" stroke-width="3" stroke-miterlimit="10" stroke-linecap="round"/>
</svg>
