<svg width="106" height="114" viewBox="0 0 106 114" fill="none" xmlns="http://www.w3.org/2000/svg">
<path d="M14.8993 112C17.9054 112 20.3424 109.563 20.3424 106.557C20.3424 103.551 17.9054 101.114 14.8993 101.114C11.8931 101.114 9.45616 103.551 9.45616 106.557C9.45616 109.563 11.8931 112 14.8993 112Z" stroke="#363636" stroke-width="3" stroke-miterlimit="10"/>
<path d="M98.8639 112C101.87 112 104.307 109.563 104.307 106.557C104.307 103.551 101.87 101.114 98.8639 101.114C95.8577 101.114 93.4208 103.551 93.4208 106.557C93.4208 109.563 95.8577 112 98.8639 112Z" stroke="#363636" stroke-width="3" stroke-miterlimit="10"/>
<path d="M19.3099 103.041C19.3099 103.041 24.4153 104.471 21.6607 93.214C21.6607 93.214 17.6876 92.2075 16.2771 100.783L19.3099 103.041Z" stroke="#363636" stroke-width="3" stroke-miterlimit="10"/>
<path d="M94.2878 103.041C94.2878 103.041 89.189 104.471 91.9437 93.214C91.9437 93.214 95.9168 92.2075 97.3206 100.783L94.2878 103.041Z" stroke="#363636" stroke-width="3" stroke-miterlimit="10"/>
<path d="M22.0569 93.3464H91.5394" stroke="#363636" stroke-width="3" stroke-miterlimit="10"/>
<path d="M27.3484 69.9714L21.6603 84.7049V93.2139" stroke="#363636" stroke-width="3" stroke-miterlimit="10"/>
<path d="M21.6603 87.8371H54.4448L59.7356 93.2008" stroke="#363636" stroke-width="3" stroke-miterlimit="10"/>
<path d="M29.7649 87.8371L41.81 68.2167" stroke="#363636" stroke-width="3" stroke-miterlimit="10"/>
<path d="M36.427 87.8371L48.77 67.3758" stroke="#363636" stroke-width="3" stroke-miterlimit="10"/>
<path d="M13.9656 22.48L4.25141 13.5273L2 15.9046L15.9985 30.3004" stroke="#363636" stroke-width="3" stroke-linejoin="round"/>
<path d="M88.8708 32.512L24.0633 23.8309L13.9651 22.48L27.3477 69.9715L96.7375 61.5552V33.5649L88.8708 32.512Z" stroke="#363636" stroke-width="3" stroke-miterlimit="10"/>
<path d="M55.1731 15.5999L39.2808 9.38205L55.1731 3.19067V6.93861H69.4762C69.4762 6.93861 74.7737 8.31594 74.2505 21.9171H68.1452C68.1452 21.9171 68.3571 14.6331 66.0196 12.9048H55.1003L55.1731 15.5999Z" stroke="#363636" stroke-width="3" stroke-miterlimit="10" stroke-linecap="round"/>
<path d="M24.0635 23.8308L35.7841 68.9517" stroke="#363636" stroke-width="3" stroke-miterlimit="10"/>
<path d="M53.2595 66.7532L45.4524 26.698" stroke="#363636" stroke-width="3" stroke-miterlimit="10"/>
<path d="M70.741 64.5548L66.8342 29.5587" stroke="#363636" stroke-width="3" stroke-miterlimit="10"/>
<path d="M88.216 62.3499V32.4193" stroke="#363636" stroke-width="3" stroke-miterlimit="10"/>
<path d="M16.5945 31.8167L96.7381 40.4515" stroke="#363636" stroke-width="3" stroke-miterlimit="10"/>
<path d="M25.2029 62.3497L96.7382 54.344" stroke="#363636" stroke-width="3" stroke-miterlimit="10"/>
</svg>
