<svg width="129" height="114" viewBox="0 0 129 114" fill="none" xmlns="http://www.w3.org/2000/svg">
<path d="M108.803 86.7738C118.816 86.7738 126.934 78.6564 126.934 68.643C126.934 58.6296 118.816 50.5121 108.803 50.5121C98.7895 50.5121 90.6721 58.6296 90.6721 68.643C90.6721 78.6564 98.7895 86.7738 108.803 86.7738Z" stroke="#363636" stroke-width="3" stroke-miterlimit="10"/>
<path d="M107.588 78.8567V64.4487H104.3C104.242 64.4504 104.184 64.4401 104.129 64.4185C104.075 64.3969 104.026 64.3645 103.985 64.3232C103.943 64.2819 103.911 64.2326 103.889 64.1783C103.868 64.124 103.857 64.0659 103.859 64.0075V62.5389C103.857 62.4802 103.868 62.4218 103.889 62.3672C103.911 62.3126 103.943 62.263 103.984 62.2212C104.025 62.1794 104.075 62.1464 104.129 62.1241C104.183 62.1019 104.242 62.0908 104.3 62.0917H108.918C109.067 62.0917 109.216 62.1213 109.354 62.1787C109.492 62.2362 109.618 62.3204 109.723 62.4266C109.829 62.5327 109.912 62.6587 109.969 62.7973C110.026 62.9358 110.055 63.0842 110.054 63.2339V77.6479H113.311C113.369 77.6471 113.427 77.658 113.481 77.6799C113.535 77.7017 113.584 77.7342 113.625 77.7753C113.666 77.8165 113.699 77.8654 113.721 77.9193C113.742 77.9732 113.753 78.031 113.752 78.0891V79.5456C113.753 79.6038 113.742 79.6615 113.721 79.7154C113.699 79.7693 113.666 79.8183 113.625 79.8594C113.584 79.9005 113.535 79.933 113.481 79.9549C113.427 79.9768 113.369 79.9876 113.311 79.9868H108.724C108.424 79.9868 108.136 79.8679 107.923 79.6562C107.71 79.4444 107.59 79.1569 107.588 78.8567ZM107.618 59.1968V56.4469C107.617 56.3883 107.628 56.33 107.651 56.2757C107.673 56.2214 107.706 56.1722 107.748 56.1309C107.789 56.0897 107.839 56.0574 107.894 56.0359C107.948 56.0144 108.007 56.0041 108.065 56.0058H109.582C109.641 56.0049 109.698 56.0158 109.752 56.0377C109.806 56.0596 109.855 56.092 109.896 56.1332C109.937 56.1743 109.97 56.2232 109.992 56.2771C110.014 56.331 110.024 56.3888 110.024 56.4469V59.1968C110.024 59.2549 110.014 59.3127 109.992 59.3666C109.97 59.4205 109.937 59.4694 109.896 59.5106C109.855 59.5517 109.806 59.5842 109.752 59.606C109.698 59.6279 109.641 59.6388 109.582 59.638H108.065C108.007 59.6396 107.949 59.6295 107.895 59.6084C107.841 59.5872 107.792 59.5554 107.75 59.5149C107.708 59.4743 107.675 59.4258 107.652 59.3722C107.63 59.3186 107.618 59.261 107.618 59.2028V59.1968Z" fill="#363636"/>
<path d="M20.1308 86.7859C30.1442 86.7859 38.2617 78.6684 38.2617 68.655C38.2617 58.6416 30.1442 50.5242 20.1308 50.5242C10.1175 50.5242 2 58.6416 2 68.655C2 78.6684 10.1175 86.7859 20.1308 86.7859Z" stroke="#363636" stroke-width="3" stroke-miterlimit="10"/>
<path d="M18.185 73.1092C17.7172 72.2389 17.4664 71.2686 17.4537 70.2807C17.4537 68.1776 18.7168 66.9447 20.5178 65.2827C21.7265 64.1827 22.8506 63.0828 22.8506 61.6565C22.8506 60.2302 21.7507 59.1544 19.9195 59.1544C18.5742 59.2287 17.2883 59.7329 16.251 60.5928C16.2008 60.6382 16.1412 60.672 16.0764 60.6917C16.0116 60.7114 15.9433 60.7165 15.8763 60.7067C15.8093 60.6968 15.7453 60.6723 15.6889 60.6349C15.6325 60.5975 15.585 60.548 15.55 60.4901L14.9093 59.4808C14.858 59.409 14.8216 59.3277 14.8023 59.2416C14.783 59.1555 14.7812 59.0664 14.7969 58.9796C14.8127 58.8928 14.8458 58.8101 14.8942 58.7363C14.9425 58.6625 15.0052 58.5992 15.0786 58.5501C16.5184 57.3789 18.3173 56.7388 20.1733 56.737C23.1407 56.737 25.4736 58.6347 25.4736 61.6323C25.4736 63.8685 24.2105 65.1981 23.1105 66.298C21.4727 67.8996 20.1733 68.9995 20.1733 70.4318C20.1999 71.0048 20.3246 71.569 20.542 72.0999C20.5767 72.2019 20.5717 72.3133 20.528 72.4118C20.4843 72.5104 20.4052 72.5889 20.3063 72.6317L18.8739 73.2663C18.82 73.3063 18.7581 73.3341 18.6924 73.3479C18.6267 73.3617 18.5588 73.3611 18.4933 73.3462C18.4279 73.3312 18.3664 73.3023 18.3132 73.2614C18.26 73.2205 18.2162 73.1686 18.185 73.1092ZM17.3872 78.5121C17.3873 78.0989 17.5094 77.6949 17.7383 77.3509C17.9672 77.0069 18.2926 76.7381 18.6737 76.5783C19.0548 76.4186 19.4745 76.375 19.8803 76.453C20.2861 76.5311 20.6598 76.7272 20.9545 77.0169C21.2492 77.3066 21.4517 77.6768 21.5367 78.0812C21.6216 78.4856 21.5852 78.9061 21.4321 79.2899C21.2789 79.6736 21.0157 80.0036 20.6757 80.2383C20.3356 80.4731 19.9338 80.6021 19.5206 80.6093C19.2422 80.6141 18.9656 80.5634 18.7069 80.4602C18.4483 80.3569 18.2128 80.2032 18.0142 80.008C17.8156 79.8128 17.6579 79.58 17.5503 79.3231C17.4426 79.0663 17.3872 78.7906 17.3872 78.5121Z" fill="#363636"/>
<path d="M84.4653 78.8566L64.5213 91.9894L44.523 78.8566C44.523 78.8566 14.6313 85.0634 14.6313 112.236H114.351C114.351 85.0574 84.4653 78.8566 84.4653 78.8566Z" fill="white" stroke="#363636" stroke-width="3" stroke-miterlimit="10"/>
<path d="M33.9227 59.1001C33.9227 59.1001 37.6698 77.1161 26.9121 78.0952C26.9121 78.0952 30.1757 86.2419 41.4168 83.474C41.4168 83.474 41.8822 87.7045 39.8576 88.3632C39.8576 88.3632 58.629 92.6361 57.6862 67.0293" fill="white"/>
<path d="M33.9227 59.1001C33.9227 59.1001 37.6698 77.1161 26.9121 78.0952C26.9121 78.0952 30.1757 86.2419 41.4168 83.474C41.4168 83.474 41.8822 87.7045 39.8576 88.3632C39.8576 88.3632 58.629 92.6361 57.6862 67.0293" stroke="#363636" stroke-width="3" stroke-miterlimit="10"/>
<path d="M37.1679 31.1121H44.3235V59.1242H37.1679C35.0553 59.1242 33.0292 58.285 31.5354 56.7912C30.0416 55.2974 29.2024 53.2713 29.2024 51.1587V39.0715C29.204 36.96 30.0439 34.9355 31.5376 33.443C33.0312 31.9504 35.0563 31.1121 37.1679 31.1121Z" fill="white" stroke="#363636" stroke-width="3" stroke-miterlimit="10"/>
<path d="M89.4331 59.0759H82.0901V31.0637L89.4331 31.0637C91.4959 31.0637 93.4743 31.8832 94.933 33.3419C96.3917 34.8006 97.2112 36.779 97.2112 38.8419V51.3219C97.2048 53.3806 96.3825 55.3528 94.9245 56.8063C93.4665 58.2597 91.4918 59.0759 89.4331 59.0759V59.0759Z" stroke="#363636" stroke-width="3" stroke-miterlimit="10"/>
<path d="M92.4065 31.1121C92.4065 23.4026 89.3485 16.0079 83.9033 10.5502C78.4581 5.09253 71.0704 2.01761 63.3609 2H63.2884C47.2426 2.01209 33.9225 15.03 33.9225 31.1121L63.3428 31.0758L92.4065 31.1121Z" fill="white" stroke="#363636" stroke-width="3" stroke-miterlimit="10"/>
<path d="M80.8512 31.112H79.6425C80.044 31.0648 80.4497 31.0648 80.8512 31.112V31.112Z" stroke="#363636" stroke-width="3" stroke-miterlimit="10"/>
<path d="M36.7627 59.1001C36.7619 60.2196 36.9817 61.3284 37.4096 62.363C37.8375 63.3975 38.4651 64.3376 39.2564 65.1296C40.0478 65.9215 40.9875 66.5497 42.0218 66.9784C43.056 67.407 44.1646 67.6276 45.2842 67.6276H58.423" stroke="#363636" stroke-width="3" stroke-miterlimit="10"/>
<path d="M92.8357 59.1001C92.8357 59.1001 89.0887 77.1161 99.8463 78.0952C99.8463 78.0952 96.5888 86.2419 85.3416 83.474C85.3416 83.474 84.8763 87.7045 86.9009 88.3632C86.9009 88.3632 68.1294 92.6361 69.0722 67.0293" fill="white"/>
<path d="M92.8357 59.1001C92.8357 59.1001 89.0887 77.1161 99.8463 78.0952C99.8463 78.0952 96.5888 86.2419 85.3416 83.474C85.3416 83.474 84.8763 87.7045 86.9009 88.3632C86.9009 88.3632 68.1294 92.6361 69.0722 67.0293" stroke="#363636" stroke-width="3" stroke-miterlimit="10"/>
<path d="M63.0408 67.6277C73.2544 67.6277 81.5343 55.5218 81.5343 40.5885C81.5343 25.6552 73.2544 13.5494 63.0408 13.5494C52.8271 13.5494 44.5473 25.6552 44.5473 40.5885C44.5473 55.5218 52.8271 67.6277 63.0408 67.6277Z" fill="white" stroke="#363636" stroke-width="3" stroke-miterlimit="10"/>
<path d="M65.9715 70.6917C67.6638 70.6917 69.0356 69.3199 69.0356 67.6276C69.0356 65.9354 67.6638 64.5635 65.9715 64.5635H60.7438C59.0515 64.5635 57.6797 65.9354 57.6797 67.6276C57.6797 69.3199 59.0515 70.6917 60.7438 70.6917H65.9715Z" fill="white" stroke="#363636" stroke-width="3" stroke-miterlimit="10"/>
<path d="M86.5443 31.112H80.8513C80.4497 31.0648 80.0441 31.0648 79.6425 31.112C75.412 31.5411 71.9128 36.5513 71.9128 36.5513C69.7008 36.5513 67.0779 33.6745 65.1802 31.112C64.2661 29.865 63.4227 28.5676 62.6539 27.226C62.7567 28.5712 62.4781 29.918 61.8501 31.112C58.8706 36.7991 48.6448 37.6996 48.6448 37.6996C50.8145 34.2547 45.2242 31.112 45.2242 31.112H39.8574C39.8553 24.9327 42.2881 19.0013 46.6286 14.6031C50.9692 10.2048 56.8679 7.69396 63.0468 7.61447C75.8834 7.75952 86.5443 18.2089 86.5443 31.112Z" fill="white" stroke="#363636" stroke-width="3" stroke-miterlimit="10"/>
</svg>
