<svg width="1512" height="202" viewBox="0 0 1512 202" fill="none" xmlns="http://www.w3.org/2000/svg">
<line y1="128.5" x2="1512" y2="128.5" stroke="#161925" stroke-width="3"/>
<rect x="65.5" y="160.5" width="104" height="7" fill="white" stroke="#161925" stroke-width="3"/>
<rect x="320.5" y="160.5" width="104" height="7" fill="white" stroke="#161925" stroke-width="3"/>
<rect x="575.5" y="160.5" width="104" height="7" fill="white" stroke="#161925" stroke-width="3"/>
<rect x="831.5" y="160.5" width="104" height="7" fill="white" stroke="#161925" stroke-width="3"/>
<rect x="1087.5" y="160.5" width="104" height="7" fill="white" stroke="#161925" stroke-width="3"/>
<line x1="-1" y1="200.5" x2="1511" y2="200.5" stroke="#161925" stroke-width="3"/>
<rect x="1341.5" y="160.5" width="104" height="7" fill="white" stroke="#161925" stroke-width="3"/>
<path d="M337.075 105.964H298.234C298.234 106.284 298.234 106.604 298.234 106.924C298.367 111.95 300.474 116.725 304.107 120.232C307.74 123.74 312.61 125.703 317.681 125.703C322.752 125.703 327.622 123.74 331.255 120.232C334.888 116.725 336.995 111.95 337.128 106.924C337.101 106.604 337.088 106.284 337.075 105.964Z" stroke="black" stroke-width="3" stroke-miterlimit="10"/>
<path d="M328.276 106.924C328.178 109.652 327.016 112.236 325.035 114.131C323.053 116.027 320.408 117.086 317.654 117.086C314.901 117.086 312.255 116.027 310.274 114.131C308.292 112.236 307.13 109.652 307.032 106.924C307.032 106.604 307.032 106.284 307.032 105.964H328.195C328.249 106.284 328.276 106.604 328.276 106.924Z" stroke="black" stroke-width="3" stroke-miterlimit="10"/>
<path d="M205.471 105.964H166.63C166.63 106.284 166.63 106.604 166.63 106.924C166.763 111.95 168.87 116.725 172.503 120.232C176.136 123.74 181.006 125.703 186.077 125.703C191.148 125.703 196.018 123.74 199.651 120.232C203.284 116.725 205.391 111.95 205.524 106.924C205.497 106.604 205.484 106.284 205.471 105.964Z" stroke="black" stroke-width="3" stroke-miterlimit="10"/>
<path d="M196.685 106.924C196.587 109.652 195.425 112.236 193.444 114.131C191.463 116.027 188.817 117.086 186.064 117.086C183.31 117.086 180.664 116.027 178.683 114.131C176.702 112.236 175.54 109.652 175.442 106.924C175.442 106.604 175.442 106.284 175.442 105.964H196.685C196.685 106.284 196.685 106.604 196.685 106.924Z" stroke="black" stroke-width="3" stroke-miterlimit="10"/>
<path d="M135 6.49541C135 5.90404 135.118 5.31848 135.346 4.7723C135.575 4.22611 135.91 3.73003 136.333 3.31249C136.755 2.89495 137.257 2.56416 137.808 2.33907C138.36 2.11397 138.951 1.99902 139.547 2.00077H277.515C279.53 1.97223 281.474 2.73669 282.922 4.12666C284.369 5.51664 285.202 7.41877 285.237 9.41626V105.978H139.547C138.948 105.978 138.354 105.86 137.801 105.632C137.248 105.404 136.745 105.069 136.322 104.648C135.9 104.226 135.565 103.726 135.338 103.176C135.112 102.626 134.997 102.037 135 101.443V6.49541Z" stroke="black" stroke-width="3" stroke-miterlimit="10"/>
<path d="M337.074 105.978H352.25C352.957 105.959 353.653 105.802 354.299 105.516C354.944 105.23 355.527 104.821 356.013 104.312C356.499 103.803 356.879 103.204 357.131 102.549C357.384 101.894 357.503 101.197 357.484 100.496V71.0075C357.503 70.3068 357.384 69.6092 357.131 68.9544C356.879 68.2997 356.499 67.7007 356.013 67.1916C355.527 66.6825 354.944 66.2734 354.299 65.9876C353.653 65.7018 352.957 65.5449 352.25 65.5259H285.237V105.978H298.234" stroke="black" stroke-width="3" stroke-miterlimit="10"/>
<path d="M336.119 18.6323H341.985C344.434 18.6323 346.425 19.3125 346.425 20.1528V28.2751C346.425 29.1154 344.434 29.7822 341.985 29.7822H285.237V18.6323H336.119Z" stroke="black" stroke-width="3" stroke-miterlimit="10"/>
<path d="M357.107 88.266H366V102.443H357.107" stroke="black" stroke-width="3" stroke-miterlimit="10"/>
<path d="M285.237 75.5289H298.207" stroke="black" stroke-width="3" stroke-miterlimit="10"/>
<path d="M337.101 29.7822L346.465 65.5126H285.237V29.7822H337.101Z" stroke="black" stroke-width="3" stroke-miterlimit="10"/>
<path d="M262.514 2.00073H228.705V106.004H262.514V2.00073Z" stroke="black" stroke-width="3" stroke-miterlimit="10"/>
<path d="M328.276 31.2092L337.101 64.0988H292.906V31.2092H328.276Z" stroke="black" stroke-width="3" stroke-miterlimit="10"/>
<path d="M269.9 2.00073V105.257" stroke="black" stroke-width="3" stroke-miterlimit="10"/>
<path d="M1183.18 105.964H1222.35C1222.35 106.284 1222.35 106.604 1222.35 106.924C1222.22 111.95 1220.09 116.725 1216.43 120.232C1212.76 123.74 1207.85 125.703 1202.74 125.703C1197.62 125.703 1192.71 123.74 1189.05 120.232C1185.38 116.725 1183.26 111.95 1183.12 106.924C1183.15 106.604 1183.16 106.284 1183.18 105.964Z" stroke="black" stroke-width="3" stroke-miterlimit="10"/>
<path d="M1192.05 106.924C1192.15 109.652 1193.32 112.236 1195.32 114.131C1197.32 116.027 1199.99 117.086 1202.76 117.086C1205.54 117.086 1208.21 116.027 1210.21 114.131C1212.21 112.236 1213.38 109.652 1213.48 106.924C1213.48 106.604 1213.48 106.284 1213.48 105.964H1192.13C1192.08 106.284 1192.05 106.604 1192.05 106.924Z" stroke="black" stroke-width="3" stroke-miterlimit="10"/>
<path d="M1315.92 105.964H1355.1C1355.1 106.284 1355.1 106.604 1355.1 106.924C1354.96 111.95 1352.84 116.725 1349.17 120.232C1345.51 123.74 1340.6 125.703 1335.48 125.703C1330.37 125.703 1325.45 123.74 1321.79 120.232C1318.13 116.725 1316 111.95 1315.87 106.924C1315.89 106.604 1315.91 106.284 1315.92 105.964Z" stroke="black" stroke-width="3" stroke-miterlimit="10"/>
<path d="M1324.78 106.924C1324.88 109.652 1326.05 112.236 1328.05 114.131C1330.05 116.027 1332.72 117.086 1335.49 117.086C1338.27 117.086 1340.94 116.027 1342.94 114.131C1344.94 112.236 1346.11 109.652 1346.21 106.924C1346.21 106.604 1346.21 106.284 1346.21 105.964H1324.78C1324.78 106.284 1324.78 106.604 1324.78 106.924Z" stroke="black" stroke-width="3" stroke-miterlimit="10"/>
<path d="M1387 6.49541C1387 5.90404 1386.88 5.31848 1386.65 4.7723C1386.42 4.22611 1386.08 3.73003 1385.66 3.31249C1385.23 2.89495 1384.72 2.56416 1384.17 2.33907C1383.61 2.11397 1383.01 1.99902 1382.41 2.00077H1243.25C1241.22 1.97223 1239.26 2.73669 1237.8 4.12666C1236.34 5.51664 1235.5 7.41877 1235.46 9.41626V105.978H1382.41C1383.02 105.978 1383.62 105.86 1384.17 105.632C1384.73 105.404 1385.24 105.069 1385.67 104.648C1386.09 104.226 1386.43 103.726 1386.66 103.176C1386.89 102.626 1387 102.037 1387 101.443V6.49541Z" stroke="black" stroke-width="3" stroke-miterlimit="10"/>
<path d="M1183.18 105.978H1167.87C1167.16 105.959 1166.45 105.802 1165.8 105.516C1165.15 105.23 1164.56 104.821 1164.07 104.312C1163.58 103.803 1163.2 103.204 1162.95 102.549C1162.69 101.894 1162.57 101.197 1162.59 100.496V71.0075C1162.57 70.3068 1162.69 69.6092 1162.95 68.9544C1163.2 68.2997 1163.58 67.7007 1164.07 67.1916C1164.56 66.6825 1165.15 66.2734 1165.8 65.9876C1166.45 65.7018 1167.16 65.5449 1167.87 65.5259H1235.46V105.978H1222.35" stroke="black" stroke-width="3" stroke-miterlimit="10"/>
<path d="M1184.14 18.6323H1178.22C1175.75 18.6323 1173.74 19.3125 1173.74 20.1528V28.2751C1173.74 29.1154 1175.75 29.7822 1178.22 29.7822H1235.46V18.6323H1184.14Z" stroke="black" stroke-width="3" stroke-miterlimit="10"/>
<path d="M1162.97 88.266H1154V102.443H1162.97" stroke="black" stroke-width="3" stroke-miterlimit="10"/>
<path d="M1235.46 75.5289H1222.38" stroke="black" stroke-width="3" stroke-miterlimit="10"/>
<path d="M1183.15 29.7822L1173.7 65.5126H1235.46V29.7822H1183.15Z" stroke="black" stroke-width="3" stroke-miterlimit="10"/>
<path d="M1258.38 2.00073H1292.48V106.004H1258.38V2.00073Z" stroke="black" stroke-width="3" stroke-miterlimit="10"/>
<path d="M1192.05 31.2092L1183.15 64.0988H1227.73V31.2092H1192.05Z" stroke="black" stroke-width="3" stroke-miterlimit="10"/>
<path d="M1250.93 2.00073V105.257" stroke="black" stroke-width="3" stroke-miterlimit="10"/>
</svg>
