<svg width="1512" height="862" viewBox="0 0 1512 862" fill="none" xmlns="http://www.w3.org/2000/svg">
<path d="M-338.545 652.484C-281.02 600.54 -158.576 593.801 -57.3915 614.164C43.7931 634.528 132.716 675.972 227.796 707.382C400.111 764.309 601.551 787.902 778.951 756.005C841.136 744.823 899.228 727.195 956.973 709.648C1029.28 687.68 1101.59 665.712 1173.91 643.744C1218.22 630.289 1262.97 616.722 1311.54 609.798C1377.54 600.392 1447.81 603.628 1515.27 597.898C1605.09 590.267 1693.57 564.013 1736.84 515.018C1767.21 480.64 1772.51 438.973 1776.22 398.557C1780.81 348.782 1783.91 298.879 1785.5 248.882C1785.85 237.754 1785.75 225.745 1775.49 216.177C1759.26 201.033 1726.43 198.954 1698.52 197.905C1591.76 193.871 1484.74 180.195 1381.73 157.427C1300.13 139.426 1219.64 115.508 1135.1 109.67C1067.64 105.02 999.676 112.424 941.137 130.777C853.823 158.18 788.796 208.743 696.714 229.992C609.978 249.996 509.41 241.264 417.695 221.509C325.978 201.772 239.698 171.605 150.048 147.677C47.078 120.173 -60.503 100.887 -169.154 90.4428C-186.518 149.043 -203.854 207.645 -221.217 266.227" fill="url(#paint0_linear_2_87)"/>
<defs>
<linearGradient id="paint0_linear_2_87" x1="747.255" y1="81.0648" x2="525.158" y2="785.944" gradientUnits="userSpaceOnUse">
<stop stop-color="#474747"/>
<stop offset="1" stop-color="#050C25"/>
</linearGradient>
</defs>
</svg>
