<svg width="2135" height="861" viewBox="0 0 2135 861" fill="none" xmlns="http://www.w3.org/2000/svg">
<path d="M3.17634 652.356C60.7013 600.411 183.145 593.673 284.33 614.036C385.514 634.399 474.437 675.843 569.517 707.253C741.832 764.18 943.272 787.774 1120.67 755.877C1182.86 744.695 1240.95 727.066 1298.69 709.52C1371 687.552 1443.32 665.583 1515.63 643.615C1559.94 630.16 1604.69 616.593 1653.27 609.669C1719.26 600.264 1789.53 603.499 1856.99 597.769C1946.81 590.139 2035.29 563.884 2078.57 514.89C2108.93 480.512 2114.24 438.845 2117.94 398.429C2122.53 348.653 2125.63 298.75 2127.22 248.754C2127.57 237.626 2127.47 225.616 2117.21 216.049C2100.98 200.904 2068.15 198.826 2040.24 197.777C1933.48 193.743 1826.46 180.067 1723.45 157.298C1641.85 139.298 1561.36 115.379 1476.82 109.542C1409.36 104.891 1341.4 112.296 1282.86 130.649C1195.54 158.052 1130.52 208.614 1038.43 229.864C951.7 249.867 851.131 241.136 759.416 221.381C667.699 201.643 581.419 171.477 491.769 147.549C388.799 120.044 281.218 100.759 172.567 90.3144C155.203 148.914 137.867 207.517 120.504 266.099" fill="url(#paint0_linear_2_87)"/>
<defs>
<linearGradient id="paint0_linear_2_87" x1="1088.98" y1="80.9364" x2="866.879" y2="785.815" gradientUnits="userSpaceOnUse">
<stop stop-color="#474747"/>
<stop offset="1" stop-color="#050C25"/>
</linearGradient>
</defs>
</svg>
