<svg width="235" height="128" viewBox="0 0 235 128" fill="none" xmlns="http://www.w3.org/2000/svg">
<path d="M204.075 105.964H165.234C165.234 106.284 165.234 106.604 165.234 106.924C165.367 111.95 167.474 116.725 171.107 120.232C174.74 123.74 179.61 125.703 184.681 125.703C189.752 125.703 194.622 123.74 198.255 120.232C201.888 116.725 203.995 111.95 204.128 106.924C204.101 106.604 204.088 106.284 204.075 105.964Z" stroke="black" stroke-width="3" stroke-miterlimit="10"/>
<path d="M195.276 106.924C195.178 109.652 194.016 112.236 192.035 114.131C190.053 116.027 187.408 117.086 184.654 117.086C181.901 117.086 179.255 116.027 177.274 114.131C175.292 112.236 174.13 109.652 174.032 106.924C174.032 106.604 174.032 106.284 174.032 105.964H195.195C195.249 106.284 195.276 106.604 195.276 106.924Z" stroke="black" stroke-width="3" stroke-miterlimit="10"/>
<path d="M72.4705 105.964H33.6297C33.6297 106.284 33.6297 106.604 33.6297 106.924C33.763 111.95 35.8705 116.725 39.503 120.232C43.1355 123.74 48.0061 125.703 53.077 125.703C58.148 125.703 63.0185 123.74 66.651 120.232C70.2836 116.725 72.391 111.95 72.5243 106.924C72.4974 106.604 72.484 106.284 72.4705 105.964Z" stroke="black" stroke-width="3" stroke-miterlimit="10"/>
<path d="M63.6853 106.924C63.5873 109.652 62.4254 112.236 60.4441 114.131C58.4629 116.027 55.817 117.086 53.0636 117.086C50.3102 117.086 47.6643 116.027 45.683 114.131C43.7018 112.236 42.5398 109.652 42.4419 106.924C42.4419 106.604 42.4419 106.284 42.4419 105.964H63.6853C63.6853 106.284 63.6853 106.604 63.6853 106.924Z" stroke="black" stroke-width="3" stroke-miterlimit="10"/>
<path d="M2.00008 6.49541C2.00008 5.90404 2.11779 5.31848 2.34648 4.7723C2.57517 4.22611 2.91034 3.73003 3.33278 3.31249C3.75521 2.89495 4.25662 2.56416 4.80825 2.33907C5.35988 2.11397 5.95089 1.99902 6.54742 2.00077H144.515C146.53 1.97223 148.474 2.73669 149.922 4.12666C151.369 5.51664 152.202 7.41877 152.237 9.41626V105.978H6.54742C5.94799 105.978 5.35447 105.86 4.801 105.632C4.24752 105.404 3.74503 105.069 3.32242 104.648C2.8998 104.226 2.56541 103.726 2.33847 103.176C2.11153 102.626 1.99653 102.037 2.00008 101.443V6.49541Z" stroke="black" stroke-width="3" stroke-miterlimit="10"/>
<path d="M204.074 105.978H219.25C219.957 105.959 220.653 105.802 221.299 105.516C221.944 105.23 222.527 104.821 223.013 104.312C223.499 103.803 223.879 103.204 224.131 102.549C224.384 101.894 224.503 101.197 224.484 100.496V71.0075C224.503 70.3068 224.384 69.6092 224.131 68.9544C223.879 68.2997 223.499 67.7007 223.013 67.1916C222.527 66.6825 221.944 66.2734 221.299 65.9876C220.653 65.7018 219.957 65.5449 219.25 65.5259H152.237V105.978H165.234" stroke="black" stroke-width="3" stroke-miterlimit="10"/>
<path d="M203.119 18.6323H208.985C211.434 18.6323 213.425 19.3125 213.425 20.1528V28.2751C213.425 29.1154 211.434 29.7822 208.985 29.7822H152.237V18.6323H203.119Z" stroke="black" stroke-width="3" stroke-miterlimit="10"/>
<path d="M224.107 88.266H233V102.443H224.107" stroke="black" stroke-width="3" stroke-miterlimit="10"/>
<path d="M152.237 75.5289H165.207" stroke="black" stroke-width="3" stroke-miterlimit="10"/>
<path d="M204.101 29.7822L213.465 65.5126H152.237V29.7822H204.101Z" stroke="black" stroke-width="3" stroke-miterlimit="10"/>
<path d="M129.514 2.00073H95.705V106.004H129.514V2.00073Z" stroke="black" stroke-width="3" stroke-miterlimit="10"/>
<path d="M195.276 31.2092L204.101 64.0988H159.906V31.2092H195.276Z" stroke="black" stroke-width="3" stroke-miterlimit="10"/>
<path d="M136.9 2.00073V105.257" stroke="black" stroke-width="3" stroke-miterlimit="10"/>
</svg>
